<svg width="106" height="85" viewBox="0 0 106 85" fill="none" xmlns="http://www.w3.org/2000/svg">
<path d="M53 42.5L13.462 26.6688L15.9 85H5.3L7.844 24.3844L0 21.25L53 0L106 21.25L53 42.5ZM53 15.9375C50.085 15.9375 47.7 17.1063 47.7 18.5938C47.7 20.0812 50.085 21.25 53 21.25C55.915 21.25 58.3 20.0812 58.3 18.5938C58.3 17.1063 55.915 15.9375 53 15.9375ZM53 47.8125L82.521 35.9656C86.284 40.9594 88.881 46.9625 89.729 53.4969C88.139 53.2844 86.496 53.125 84.8 53.125C71.285 53.125 59.466 60.4031 53 71.2406C49.718 65.7196 45.0619 61.1475 39.4875 57.972C33.9132 54.7964 27.6117 53.1263 21.2 53.125C19.504 53.125 17.861 53.2844 16.271 53.4969C17.119 46.9625 19.716 40.9594 23.479 35.9656L53 47.8125Z" fill="#DDAF53"/>
</svg>
