<svg width="56" height="57" viewBox="0 0 56 57" fill="none" xmlns="http://www.w3.org/2000/svg">
<circle cx="28" cy="28.6682" r="28" fill="#D7F5FE"/>
<path d="M44.6667 35.6515C44.6667 41.7182 41.05 45.3349 34.9833 45.3349H33C32.0833 45.3349 31.3333 44.5849 31.3333 43.6682V34.0515C31.3333 33.6015 31.7 33.2182 32.15 33.2182L35.0833 33.1682C35.3167 33.1515 35.5167 32.9849 35.5667 32.7515L36.15 29.5682C36.2 29.2682 35.9667 28.9849 35.65 28.9849L32.1 29.0349C31.6333 29.0349 31.2667 28.6682 31.25 28.2182L31.1833 24.1349C31.1833 23.8682 31.4 23.6349 31.6833 23.6349L35.6833 23.5682C35.9666 23.5682 36.1833 23.3516 36.1833 23.0682L36.1167 19.0682C36.1167 18.7848 35.9 18.5682 35.6167 18.5682L31.1167 18.6349C28.35 18.6849 26.15 20.9515 26.2 23.7182L26.2833 28.3015C26.3 28.7682 25.9334 29.1349 25.4667 29.1515L23.4667 29.1849C23.1833 29.1849 22.9667 29.4015 22.9667 29.6848L23.0167 32.8515C23.0167 33.1349 23.2333 33.3515 23.5167 33.3515L25.5167 33.3182C25.9833 33.3182 26.35 33.6849 26.3666 34.1349L26.5166 43.6349C26.5333 44.5682 25.7833 45.3349 24.85 45.3349H21.0167C14.95 45.3349 11.3333 41.7182 11.3333 35.6348V21.6849C11.3333 15.6182 14.95 12.0015 21.0167 12.0015H34.9833C41.05 12.0015 44.6667 15.6182 44.6667 21.6849V35.6515Z" fill="url(#paint0_linear_79_570)"/>
<defs>
<linearGradient id="paint0_linear_79_570" x1="11.3333" y1="28.6682" x2="44.6667" y2="28.6682" gradientUnits="userSpaceOnUse">
<stop stop-color="#00C6FB"/>
<stop offset="1" stop-color="#005BEA"/>
</linearGradient>
</defs>
</svg>
