<svg width="17" height="13" viewBox="0 0 17 13" fill="none" xmlns="http://www.w3.org/2000/svg">
<g clip-path="url(#clip0_523_103)">
<path d="M3.86365 12.936V6.27368L1.82664 4.38343L0 3.33447V11.7603C0 12.4108 0.519629 12.936 1.15912 12.936H3.86365Z" fill="#4285F4"/>
<path d="M13.1364 12.9359H15.8409C16.4823 12.9359 17 12.4088 17 11.7602V3.33447L14.931 4.53593L13.1364 6.27362V12.9359Z" fill="#34A853"/>
<path d="M3.86365 6.27361L3.58647 3.67044L3.86365 1.17896L8.5 4.70606L13.1364 1.17896L13.4464 3.53593L13.1364 6.27361L8.5 9.80072L3.86365 6.27361Z" fill="#EA4335"/>
<path d="M13.1364 1.17901V6.27366L17 3.33445V1.76683C17 0.312922 15.3638 -0.515912 14.2182 0.356031L13.1364 1.17901Z" fill="#FBBC04"/>
<path d="M0 3.33423L1.77696 4.6861L3.86365 6.27344V1.17879L2.78176 0.355818C1.63426 -0.516193 0 0.312709 0 1.76655V3.33416V3.33423Z" fill="#C5221F"/>
</g>
<defs>
<clipPath id="clip0_523_103">
<rect width="17" height="13" fill="white"/>
</clipPath>
</defs>
</svg>
