<svg width="56" height="57" viewBox="0 0 56 57" fill="none" xmlns="http://www.w3.org/2000/svg">
<circle cx="28" cy="28.6682" r="28" fill="#EFDBDD"/>
<path d="M34.9833 12.0015H21.0167C14.95 12.0015 11.3333 15.6182 11.3333 21.6849V35.6349C11.3333 41.7182 14.95 45.3349 21.0167 45.3349H34.9667C41.0333 45.3349 44.65 41.7182 44.65 35.6515V21.6849C44.6667 15.6182 41.05 12.0015 34.9833 12.0015ZM28 35.1349C24.4333 35.1349 21.5333 32.2349 21.5333 28.6682C21.5333 25.1015 24.4333 22.2015 28 22.2015C31.5667 22.2015 34.4667 25.1015 34.4667 28.6682C34.4667 32.2349 31.5667 35.1349 28 35.1349ZM37.8667 20.1349C37.7833 20.3349 37.6667 20.5182 37.5167 20.6849C37.35 20.8349 37.1667 20.9515 36.9667 21.0349C36.7667 21.1182 36.55 21.1682 36.3333 21.1682C35.8833 21.1682 35.4667 21.0015 35.15 20.6849C35 20.5182 34.8833 20.3349 34.8 20.1349C34.7167 19.9349 34.6667 19.7182 34.6667 19.5015C34.6667 19.2849 34.7167 19.0682 34.8 18.8682C34.8833 18.6515 35 18.4849 35.15 18.3182C35.5333 17.9349 36.1167 17.7515 36.65 17.8682C36.7667 17.8849 36.8667 17.9182 36.9667 17.9682C37.0667 18.0015 37.1667 18.0515 37.2667 18.1182C37.35 18.1682 37.4333 18.2515 37.5167 18.3182C37.6667 18.4849 37.7833 18.6515 37.8667 18.8682C37.95 19.0682 38 19.2849 38 19.5015C38 19.7182 37.95 19.9349 37.8667 20.1349Z" fill="url(#paint0_linear_79_577)"/>
<defs>
<linearGradient id="paint0_linear_79_577" x1="11.3333" y1="28.6682" x2="44.6501" y2="28.6682" gradientUnits="userSpaceOnUse">
<stop stop-color="#F43B47"/>
<stop offset="1" stop-color="#453A94"/>
</linearGradient>
</defs>
</svg>
