<svg width="56" height="57" viewBox="0 0 56 57" fill="none" xmlns="http://www.w3.org/2000/svg">
<circle cx="28" cy="28.1689" r="28" fill="#DDFFEB"/>
<path d="M44.6333 27.1855C44.0666 17.5189 35.2833 10.0689 25.1666 11.7355C18.2 12.8855 12.6166 18.5355 11.5333 25.5022C10.9 29.5355 11.7333 33.3522 13.55 36.5022L12.0667 42.0189C11.7333 43.2689 12.8833 44.4022 14.1166 44.0522L19.55 42.5522C22.0166 44.0022 24.9 44.8355 27.9833 44.8355C37.3833 44.8355 45.1833 36.5522 44.6333 27.1855ZM36.1333 34.3689C35.9833 34.6689 35.8 34.9522 35.5666 35.2189C35.15 35.6689 34.6999 36.0022 34.1999 36.2022C33.6999 36.4189 33.15 36.5189 32.5666 36.5189C31.7166 36.5189 30.8 36.3189 29.85 35.9022C28.8833 35.4855 27.9333 34.9355 26.9833 34.2522C26.0167 33.5522 25.1167 32.7689 24.25 31.9189C23.3833 31.0522 22.6166 30.1355 21.9166 29.1855C21.2333 28.2355 20.6833 27.2855 20.2833 26.3355C19.8833 25.3855 19.6833 24.4689 19.6833 23.6022C19.6833 23.0355 19.7833 22.4855 19.9833 21.9855C20.1833 21.4689 20.5 21.0022 20.95 20.5855C21.4834 20.0522 22.0666 19.8022 22.6833 19.8022C22.9166 19.8022 23.1499 19.8522 23.3666 19.9522C23.5833 20.0522 23.7833 20.2022 23.9333 20.4189L25.8666 23.1522C26.0166 23.3688 26.1333 23.5522 26.2 23.7355C26.2833 23.9189 26.3166 24.0855 26.3166 24.2522C26.3166 24.4522 26.25 24.6522 26.1333 24.8522C26.0167 25.0522 25.8666 25.2522 25.6666 25.4522L25.0333 26.1188C24.9333 26.2188 24.9 26.3189 24.9 26.4522C24.9 26.5189 24.9166 26.5855 24.9333 26.6522C24.9666 26.7189 24.9833 26.7689 25 26.8189C25.15 27.1022 25.4166 27.4522 25.7833 27.8855C26.1666 28.3188 26.5667 28.7688 27 29.2022C27.45 29.6522 27.8833 30.0522 28.3333 30.4355C28.7667 30.8022 29.1333 31.0522 29.4166 31.2022C29.4666 31.2189 29.5167 31.2522 29.5667 31.2688C29.6333 31.3022 29.7 31.3022 29.7833 31.3022C29.9333 31.3022 30.0334 31.2522 30.1334 31.1522L30.7666 30.5189C30.9833 30.3022 31.1834 30.1522 31.3667 30.0522C31.5667 29.9355 31.75 29.8688 31.9667 29.8688C32.1333 29.8688 32.3 29.9022 32.4833 29.9855C32.6667 30.0689 32.8666 30.1689 33.0666 30.3189L35.8333 32.2855C36.05 32.4355 36.2 32.6189 36.3 32.8189C36.3833 33.0355 36.4333 33.2355 36.4333 33.4688C36.3333 33.7522 36.2667 34.0689 36.1333 34.3689Z" fill="url(#paint0_linear_609_356)"/>
<defs>
<linearGradient id="paint0_linear_609_356" x1="11.3231" y1="28.1685" x2="44.6607" y2="28.1685" gradientUnits="userSpaceOnUse">
<stop stop-color="#43E97B"/>
<stop offset="1" stop-color="#38F9D7"/>
</linearGradient>
</defs>
</svg>
